<svg xmlns="http://www.w3.org/2000/svg" data-name="Layer 347" viewBox="0 0 51.88 49.1"><path fill="#eb5e28" d="m49.69 18.09-9-10.23-32.34 28.5 9 10.23a3.11 3.11 0 0 0 4.39.28l27.68-24.39a3.11 3.11 0 0 0 .27-4.39Zm-14.5 11.8L23.41 40.31a1.45 1.45 0 0 1-1 .38 1.48 1.48 0 0 1-1.12-.5 1.5 1.5 0 0 1 .12-2.12l11.79-10.4a1.505 1.505 0 1 1 2 2.25Zm-.51-28.84a3.13 3.13 0 0 0-4.4-.28L2.61 25.16a3.11 3.11 0 0 0-.28 4.39l2 2.3 32.34-28.5Z"/><path fill="#403d39" d="M50.38 49.1H1.5a1.5 1.5 0 1 1 0-3h48.88a1.5 1.5 0 1 1 0 3Z"/></svg>